<svg xmlns="http://www.w3.org/2000/svg" viewBox="0 0 77 359"><defs><style>.cls-1{fill:#ed6a5a;}.cls-2{fill:#ce665d;}.cls-3{fill:#fff;}</style></defs><title>Asset 4</title><g id="Layer_2" data-name="Layer 2"><g id="Layer_1-2" data-name="Layer 1"><rect class="cls-1" width="77" height="359" rx="21.32"/><path class="cls-2" d="M31,75.5a16.5,16.5,0,0,1,0-33H47a16.5,16.5,0,0,1,0,33Z"/><path class="cls-3" d="M47,43a16,16,0,0,1,0,32H31a16,16,0,0,1,0-32H47m0-1H31A17,17,0,0,0,14,59h0A17,17,0,0,0,31,76H47A17,17,0,0,0,64,59h0A17,17,0,0,0,47,42Z"/><path class="cls-2" d="M31,117.5a16.5,16.5,0,0,1,0-33H47a16.5,16.5,0,0,1,0,33Z"/><path class="cls-3" d="M47,85a16,16,0,0,1,0,32H31a16,16,0,0,1,0-32H47m0-1H31a17,17,0,0,0-17,17h0a17,17,0,0,0,17,17H47a17,17,0,0,0,17-17h0A17,17,0,0,0,47,84Z"/></g></g></svg>