<svg xmlns="http://www.w3.org/2000/svg" viewBox="0 0 78 354"><defs><style>.cls-1{fill:#c19ab7;}.cls-2{fill:#fff;}</style></defs><title>Asset 3</title><g id="Layer_2" data-name="Layer 2"><g id="Layer_1-2" data-name="Layer 1"><rect class="cls-1" width="78" height="354" rx="21.32"/><path class="cls-1" d="M39,97.5A16.52,16.52,0,0,1,22.5,81V56a16.5,16.5,0,0,1,33,0V81A16.52,16.52,0,0,1,39,97.5Z"/><path class="cls-2" d="M39,40A16,16,0,0,1,55,56V81a16,16,0,0,1-32,0V56A16,16,0,0,1,39,40m0-1A17,17,0,0,0,22,56V81a17,17,0,0,0,34,0V56A17,17,0,0,0,39,39Z"/></g></g></svg>